REM DIRINDEX 1\2\6,1\2\7,1\2\8,1\2\9,1\3\10,1\3\11,1\4\12,1\4\13,1\4\14,1\5\15,1\5\16,1\5\17
REM DIRNAME cjc029,folder01,folder02,folder03,folder04,folder05,folder06,folder07,folder08,folder09,folder10,folder11,folder12,folder13,folder14,folder15,folder16
TITLE ""
FILE "1400_2_sec10_0916_0932.mp3" MP3
  TRACK 01 AUDIO
    TITLE "0:"
    INDEX 01 00:00:00
  TRACK 02 AUDIO
    TITLE "13:cjc029_3436"
    INDEX 01 00:00:17
  TRACK 03 AUDIO
    TITLE "0:"
    INDEX 01 00:01:28
  TRACK 04 AUDIO
    TITLE "14:cjc029_3437"
    INDEX 01 00:01:34
  TRACK 05 AUDIO
    TITLE "0:"
    INDEX 01 00:06:61
  TRACK 06 AUDIO
    TITLE "13:cjc029_3438"
    INDEX 01 00:07:47
  TRACK 07 AUDIO
    TITLE "0:"
    INDEX 01 00:08:58
  TRACK 08 AUDIO
    TITLE "14:cjc029_3439"
    INDEX 01 00:08:62
  TRACK 09 AUDIO
    TITLE "0:"
    INDEX 01 00:12:73
  TRACK 10 AUDIO
    TITLE "13:cjc029_3440"
    INDEX 01 00:13:59
  TRACK 11 AUDIO
    TITLE "0:"
    INDEX 01 00:15:32
  TRACK 12 AUDIO
    TITLE "14:cjc029_3441"
    INDEX 01 00:15:36
  TRACK 13 AUDIO
    TITLE "0:"
    INDEX 01 00:17:04
  TRACK 14 AUDIO
    TITLE "13:cjc029_3442"
    INDEX 01 00:17:61
  TRACK 15 AUDIO
    TITLE "0:"
    INDEX 01 00:18:68
  TRACK 16 AUDIO
    TITLE "14:cjc029_3443"
    INDEX 01 00:18:70
  TRACK 17 AUDIO
    TITLE "0:"
    INDEX 01 00:22:32
  TRACK 18 AUDIO
    TITLE "13:cjc029_3444"
    INDEX 01 00:23:12
  TRACK 19 AUDIO
    TITLE "0:"
    INDEX 01 00:24:16
  TRACK 20 AUDIO
    TITLE "14:cjc029_3445"
    INDEX 01 00:24:20
  TRACK 21 AUDIO
    TITLE "0:"
    INDEX 01 00:27:59
  TRACK 22 AUDIO
    TITLE "13:cjc029_3446"
    INDEX 01 00:28:37
  TRACK 23 AUDIO
    TITLE "0:"
    INDEX 01 00:29:38
  TRACK 24 AUDIO
    TITLE "14:cjc029_3447"
    INDEX 01 00:29:46
  TRACK 25 AUDIO
    TITLE "0:"
    INDEX 01 00:33:58
  TRACK 26 AUDIO
    TITLE "13:cjc029_3448"
    INDEX 01 00:34:40
  TRACK 27 AUDIO
    TITLE "0:"
    INDEX 01 00:35:49
  TRACK 28 AUDIO
    TITLE "14:cjc029_3449"
    INDEX 01 00:35:55
  TRACK 29 AUDIO
    TITLE "0:"
    INDEX 01 00:38:65
  TRACK 30 AUDIO
    TITLE "13:cjc029_3450"
    INDEX 01 00:39:47
  TRACK 31 AUDIO
    TITLE "0:"
    INDEX 01 00:40:58
  TRACK 32 AUDIO
    TITLE "14:cjc029_3451"
    INDEX 01 00:40:66
  TRACK 33 AUDIO
    TITLE "0:"
    INDEX 01 00:43:01
  TRACK 34 AUDIO
    TITLE "13:cjc029_3452"
    INDEX 01 00:43:58
  TRACK 35 AUDIO
    TITLE "0:"
    INDEX 01 00:45:16
  TRACK 36 AUDIO
    TITLE "14:cjc029_3453"
    INDEX 01 00:45:22
  TRACK 37 AUDIO
    TITLE "0:"
    INDEX 01 00:48:26
  TRACK 38 AUDIO
    TITLE "13:cjc029_3454"
    INDEX 01 00:49:06
  TRACK 39 AUDIO
    TITLE "0:"
    INDEX 01 00:50:25
  TRACK 40 AUDIO
    TITLE "14:cjc029_3455"
    INDEX 01 00:50:31
  TRACK 41 AUDIO
    TITLE "0:"
    INDEX 01 00:52:49
  TRACK 42 AUDIO
    TITLE "13:cjc029_3456"
    INDEX 01 00:53:31
  TRACK 43 AUDIO
    TITLE "0:"
    INDEX 01 00:54:50
  TRACK 44 AUDIO
    TITLE "14:cjc029_3457"
    INDEX 01 00:54:56
  TRACK 45 AUDIO
    TITLE "0:"
    INDEX 01 00:57:13
  TRACK 46 AUDIO
    TITLE "13:cjc029_3458"
    INDEX 01 00:57:70
  TRACK 47 AUDIO
    TITLE "0:"
    INDEX 01 00:59:16
  TRACK 48 AUDIO
    TITLE "14:cjc029_3459"
    INDEX 01 00:59:22
  TRACK 49 AUDIO
    TITLE "0:"
    INDEX 01 01:00:64
  TRACK 50 AUDIO
    TITLE "13:cjc029_3460"
    INDEX 01 01:01:48
  TRACK 51 AUDIO
    TITLE "0:"
    INDEX 01 01:02:54
  TRACK 52 AUDIO
    TITLE "14:cjc029_3461"
    INDEX 01 01:02:55
  TRACK 53 AUDIO
    TITLE "0:"
    INDEX 01 01:05:58
  TRACK 54 AUDIO
    TITLE "13:cjc029_3462"
    INDEX 01 01:06:43
  TRACK 55 AUDIO
    TITLE "0:"
    INDEX 01 01:08:07
  TRACK 56 AUDIO
    TITLE "14:cjc029_3463"
    INDEX 01 01:08:11
  TRACK 57 AUDIO
    TITLE "0:"
    INDEX 01 01:09:46
  TRACK 58 AUDIO
    TITLE "13:cjc029_3464"
    INDEX 01 01:10:30
  TRACK 59 AUDIO
    TITLE "0:"
    INDEX 01 01:11:52
  TRACK 60 AUDIO
    TITLE "14:cjc029_3465"
    INDEX 01 01:11:56
  TRACK 61 AUDIO
    TITLE "0:"
    INDEX 01 01:14:23
  TRACK 62 AUDIO
    TITLE "13:cjc029_3466"
    INDEX 01 01:15:03
  TRACK 63 AUDIO
    TITLE "0:"
    INDEX 01 01:16:22
  TRACK 64 AUDIO
    TITLE "14:cjc029_3467"
    INDEX 01 01:16:24
  TRACK 65 AUDIO
    TITLE "0:"
    INDEX 01 01:18:53
  TRACK 66 AUDIO
    TITLE "13:cjc029_3468"
    INDEX 01 01:19:34
  TRACK 67 AUDIO
    TITLE "0:"
    INDEX 01 01:20:46
  TRACK 68 AUDIO
    TITLE "14:cjc029_3469"
    INDEX 01 01:20:49
  TRACK 69 AUDIO
    TITLE "0:"
    INDEX 01 01:24:43
